<svg xmlns="http://www.w3.org/2000/svg" xmlns:xlink="http://www.w3.org/1999/xlink" width="900" zoomAndPan="magnify" viewBox="0 0 675 599.999999" height="800" preserveAspectRatio="xMidYMid meet" version="1.0"><defs><g/><clipPath id="caffbdcab2"><path d="M 124.148438 385 L 178 385 L 178 439 L 124.148438 439 Z M 124.148438 385 " clip-rule="nonzero"/></clipPath><clipPath id="d6021d9ec8"><path d="M 230 384 L 279.398438 384 L 279.398438 440 L 230 440 Z M 230 384 " clip-rule="nonzero"/></clipPath><clipPath id="7945ca963d"><path d="M 149 396 L 254 396 L 254 488.25 L 149 488.25 Z M 149 396 " clip-rule="nonzero"/></clipPath><clipPath id="d6649c951c"><path d="M 395 85.488281 L 548.472656 85.488281 L 548.472656 238.488281 L 395 238.488281 Z M 395 85.488281 " clip-rule="nonzero"/></clipPath><clipPath id="1cbd6fceca"><path d="M 143.480469 89.203125 L 256 89.203125 L 256 234.703125 L 143.480469 234.703125 Z M 143.480469 89.203125 " clip-rule="nonzero"/></clipPath><clipPath id="d7de59acd3"><path d="M 498 343 L 547.628906 343 L 547.628906 390 L 498 390 Z M 498 343 " clip-rule="nonzero"/></clipPath><clipPath id="e73d90025d"><path d="M 446 441 L 546 441 L 546 488.25 L 446 488.25 Z M 446 441 " clip-rule="nonzero"/></clipPath><clipPath id="490ff9dd68"><path d="M 392.378906 333 L 514 333 L 514 401 L 392.378906 401 Z M 392.378906 333 " clip-rule="nonzero"/></clipPath><clipPath id="9cda848c19"><path d="M 392.378906 423 L 429 423 L 429 476 L 392.378906 476 Z M 392.378906 423 " clip-rule="nonzero"/></clipPath></defs><path stroke-linecap="butt" transform="matrix(2.249206, -0.000000000000000385, 0.000000000000000385, 2.25, 88.410678, 301.125007)" fill="none" stroke-linejoin="miter" d="M -0.000232044 -0.00000317867 L 221.41298 -0.00000317867 " stroke="#a6a6a6" stroke-width="1" stroke-opacity="1" stroke-miterlimit="4"/><path stroke-linecap="butt" transform="matrix(-0.000000000000000362, 2.249206, -2.25, -0.000000000000000362, 336.374019, 67.417985)" fill="none" stroke-linejoin="miter" d="M -0.00000727968 -0.000436095 L 206.739582 -0.000436095 " stroke="#a6a6a6" stroke-width="1" stroke-opacity="1" stroke-miterlimit="4"/><path fill="#5e17eb" d="M 185.519531 372.359375 C 185.519531 372.359375 185.640625 372.480469 185.640625 372.480469 C 189.765625 376.601562 195.464844 379.152344 201.773438 379.152344 C 208.078125 379.152344 213.78125 376.601562 217.902344 372.480469 C 217.902344 372.480469 218.023438 372.359375 218.023438 372.359375 C 218.023438 372.359375 218.144531 372.238281 218.144531 372.238281 C 222.269531 368.113281 224.816406 362.414062 224.816406 356.105469 C 224.816406 349.796875 222.269531 344.097656 218.144531 339.972656 C 218.144531 339.972656 218.023438 339.851562 218.023438 339.851562 C 218.023438 339.851562 217.902344 339.730469 217.902344 339.730469 C 213.78125 335.609375 208.078125 333.0625 201.773438 333.0625 C 195.464844 333.0625 189.765625 335.609375 185.640625 339.730469 C 185.640625 339.730469 185.519531 339.851562 185.519531 339.851562 C 185.519531 339.851562 185.398438 339.972656 185.398438 339.972656 C 181.273438 344.097656 178.726562 349.796875 178.726562 356.105469 C 178.726562 362.414062 181.273438 368.113281 185.398438 372.238281 C 185.398438 372.238281 185.398438 372.359375 185.519531 372.359375 Z M 186.003906 353.679688 L 183.699219 353.679688 C 184.183594 350.527344 185.398438 347.492188 187.21875 345.066406 L 188.792969 346.644531 C 189.277344 347.128906 189.886719 347.371094 190.492188 347.371094 C 191.097656 347.371094 191.703125 347.128906 192.191406 346.644531 C 193.160156 345.675781 193.160156 344.21875 192.191406 343.25 L 190.613281 341.671875 C 193.039062 339.851562 195.949219 338.519531 199.226562 338.15625 L 199.226562 340.339844 C 199.226562 341.671875 200.316406 342.765625 201.652344 342.765625 C 202.984375 342.765625 204.078125 341.671875 204.078125 340.339844 L 204.078125 338.035156 C 207.230469 338.519531 210.261719 339.730469 212.6875 341.550781 L 211.109375 343.128906 C 210.140625 344.097656 210.140625 345.554688 211.109375 346.523438 C 211.597656 347.007812 212.203125 347.25 212.808594 347.25 C 213.414062 347.25 214.023438 347.007812 214.507812 346.523438 L 216.082031 344.945312 C 217.902344 347.371094 219.238281 350.285156 219.601562 353.558594 L 217.539062 353.558594 C 216.207031 353.558594 215.113281 354.648438 215.113281 355.984375 C 215.113281 357.320312 216.207031 358.410156 217.539062 358.410156 L 219.84375 358.410156 C 219.359375 361.5625 218.144531 364.597656 216.328125 367.023438 L 214.75 365.445312 C 213.78125 364.472656 212.324219 364.472656 211.355469 365.445312 C 210.382812 366.414062 210.382812 367.871094 211.355469 368.839844 L 212.929688 370.417969 C 210.503906 372.238281 207.59375 373.570312 204.320312 373.933594 L 204.320312 371.875 C 204.320312 370.539062 203.226562 369.449219 201.894531 369.449219 C 200.558594 369.449219 199.46875 370.539062 199.46875 371.875 L 199.46875 374.175781 C 196.3125 373.691406 193.28125 372.480469 190.855469 370.660156 L 192.433594 369.082031 C 193.402344 368.113281 193.402344 366.65625 192.433594 365.6875 C 191.460938 364.71875 190.007812 364.71875 189.035156 365.6875 L 187.460938 367.265625 C 185.640625 364.839844 184.304688 361.925781 183.941406 358.652344 L 186.003906 358.652344 C 187.339844 358.652344 188.429688 357.5625 188.429688 356.226562 C 188.429688 354.894531 187.339844 353.679688 186.003906 353.679688 Z M 186.003906 353.679688 " fill-opacity="1" fill-rule="nonzero"/><path fill="#5e17eb" d="M 195.707031 358.53125 L 201.773438 358.53125 C 203.105469 358.53125 204.199219 357.441406 204.199219 356.105469 L 204.199219 348.828125 C 204.199219 347.492188 203.105469 346.402344 201.773438 346.402344 C 200.4375 346.402344 199.347656 347.492188 199.347656 348.828125 L 199.347656 353.679688 L 195.707031 353.679688 C 194.375 353.679688 193.28125 354.769531 193.28125 356.105469 C 193.28125 357.441406 194.375 358.53125 195.707031 358.53125 Z M 195.707031 358.53125 " fill-opacity="1" fill-rule="nonzero"/><g clip-path="url(#caffbdcab2)"><path fill="#5e17eb" d="M 127.542969 419.054688 C 128.027344 420.511719 128.632812 421.964844 129.363281 423.421875 C 128.632812 425.484375 129 427.910156 130.695312 429.484375 L 133.363281 432.152344 C 134.457031 433.246094 135.910156 433.851562 137.488281 433.851562 C 138.214844 433.851562 138.824219 433.730469 139.550781 433.488281 C 140.882812 434.214844 142.339844 434.820312 143.917969 435.308594 C 144.886719 437.246094 146.828125 438.703125 149.132812 438.703125 L 152.890625 438.703125 C 155.195312 438.703125 157.257812 437.371094 158.109375 435.308594 C 159.5625 434.820312 161.019531 434.214844 162.472656 433.488281 C 163.082031 433.730469 163.808594 433.851562 164.535156 433.851562 C 166.113281 433.851562 167.566406 433.246094 168.660156 432.152344 L 171.328125 429.484375 C 173.027344 427.789062 173.390625 425.484375 172.664062 423.421875 C 173.390625 422.085938 173.996094 420.632812 174.480469 419.054688 C 176.421875 418.085938 177.878906 416.144531 177.878906 413.839844 L 177.878906 410.078125 C 177.878906 407.773438 176.542969 405.710938 174.480469 404.863281 C 173.996094 403.410156 173.390625 401.953125 172.664062 400.496094 C 172.90625 399.890625 173.027344 399.164062 173.027344 398.433594 C 173.027344 396.859375 172.417969 395.402344 171.328125 394.3125 L 168.660156 391.644531 C 167.566406 390.550781 166.113281 389.945312 164.535156 389.945312 C 163.808594 389.945312 163.203125 390.066406 162.472656 390.308594 C 161.140625 389.582031 159.683594 388.976562 158.109375 388.488281 C 157.136719 386.550781 155.195312 385.09375 152.890625 385.09375 L 149.132812 385.09375 C 146.828125 385.09375 144.765625 386.429688 143.917969 388.488281 C 142.460938 388.976562 141.007812 389.582031 139.550781 390.308594 C 138.703125 390.1875 138.09375 390.066406 137.367188 390.066406 C 135.789062 390.066406 134.335938 390.671875 133.242188 391.765625 L 130.574219 394.433594 C 129.605469 395.402344 129 396.859375 129 398.433594 C 129 399.164062 129.121094 399.769531 129.363281 400.496094 C 128.632812 401.832031 128.027344 403.285156 127.542969 404.863281 C 125.480469 405.710938 124.148438 407.652344 124.148438 410.078125 L 124.148438 413.839844 C 124.148438 416.144531 125.480469 418.085938 127.542969 419.054688 Z M 129 410.078125 C 129 409.59375 129.363281 409.109375 129.96875 409.109375 L 131.546875 409.109375 C 132.03125 405.835938 133.363281 402.800781 135.183594 400.253906 L 134.09375 399.164062 C 133.730469 398.800781 133.730469 398.191406 134.09375 397.828125 L 136.761719 395.160156 C 136.882812 395.039062 137.125 394.917969 137.367188 394.917969 C 137.609375 394.917969 137.851562 395.039062 137.972656 395.160156 L 139.066406 396.253906 C 141.613281 394.3125 144.644531 393.097656 147.917969 392.613281 L 147.917969 391.035156 C 147.917969 390.550781 148.285156 390.066406 148.890625 390.066406 L 152.648438 390.066406 C 153.136719 390.066406 153.621094 390.429688 153.621094 391.035156 L 153.621094 392.613281 C 156.894531 393.097656 159.925781 394.433594 162.472656 396.253906 L 163.566406 395.160156 C 163.6875 395.039062 163.929688 394.917969 164.171875 394.917969 C 164.414062 394.917969 164.65625 395.039062 164.777344 395.160156 L 167.445312 397.828125 C 167.8125 398.191406 167.8125 398.800781 167.445312 399.164062 L 166.355469 400.253906 C 168.296875 402.800781 169.507812 405.835938 169.992188 409.109375 L 171.570312 409.109375 C 172.054688 409.109375 172.542969 409.472656 172.542969 410.078125 L 172.542969 413.839844 C 172.542969 414.324219 172.175781 414.808594 171.570312 414.808594 L 169.992188 414.808594 C 169.507812 418.085938 168.175781 421.117188 166.355469 423.664062 L 167.445312 424.753906 C 167.8125 425.117188 167.8125 425.726562 167.445312 426.089844 L 164.777344 428.757812 C 164.777344 428.878906 164.535156 428.878906 164.292969 428.878906 C 164.050781 428.878906 163.808594 428.757812 163.6875 428.636719 L 162.59375 427.542969 C 160.046875 429.484375 157.015625 430.699219 153.742188 431.183594 L 153.742188 432.761719 C 153.742188 433.246094 153.378906 433.730469 152.769531 433.730469 L 149.011719 433.730469 C 148.527344 433.730469 148.039062 433.367188 148.039062 432.761719 L 148.039062 431.183594 C 144.765625 430.699219 141.734375 429.363281 139.1875 427.542969 L 138.09375 428.636719 C 137.851562 428.878906 137.609375 428.878906 137.367188 428.878906 C 137.125 428.878906 136.882812 428.757812 136.761719 428.636719 L 134.09375 425.96875 C 133.730469 425.605469 133.730469 424.996094 134.09375 424.632812 L 135.183594 423.542969 C 133.242188 420.996094 132.03125 417.964844 131.546875 414.6875 L 129.96875 414.6875 C 129.363281 414.6875 129 414.324219 129 413.71875 Z M 129 410.078125 " fill-opacity="1" fill-rule="nonzero"/></g><path fill="#5e17eb" d="M 150.832031 426.453125 C 158.835938 426.453125 165.386719 419.902344 165.386719 411.898438 C 165.386719 403.894531 158.835938 397.34375 150.832031 397.34375 C 142.824219 397.34375 136.277344 403.894531 136.277344 411.898438 C 136.277344 419.902344 142.824219 426.453125 150.832031 426.453125 Z M 150.832031 402.195312 C 156.167969 402.195312 160.535156 406.5625 160.535156 411.898438 C 160.535156 417.234375 156.167969 421.601562 150.832031 421.601562 C 145.492188 421.601562 141.128906 417.234375 141.128906 411.898438 C 141.128906 406.5625 145.492188 402.195312 150.832031 402.195312 Z M 150.832031 402.195312 " fill-opacity="1" fill-rule="nonzero"/><path fill="#5e17eb" d="M 249.195312 379.152344 L 254.894531 379.152344 C 248.832031 369.082031 240.097656 360.835938 229.546875 355.5 C 229.546875 355.742188 229.546875 355.863281 229.546875 356.105469 C 229.546875 357.683594 229.425781 359.257812 229.183594 360.714844 C 237.308594 365.203125 244.222656 371.507812 249.195312 379.152344 Z M 249.195312 379.152344 " fill-opacity="1" fill-rule="nonzero"/><g clip-path="url(#d6021d9ec8)"><path fill="#5e17eb" d="M 272.121094 388.855469 L 267.148438 388.855469 C 266.539062 386.0625 264.113281 384.003906 261.203125 384.003906 L 249.074219 384.003906 C 246.164062 384.003906 243.738281 386.0625 243.132812 388.855469 L 238.160156 388.855469 C 234.15625 388.855469 230.882812 392.128906 230.882812 396.132812 L 230.882812 432.519531 C 230.882812 436.519531 234.15625 439.796875 238.160156 439.796875 L 272.121094 439.796875 C 276.121094 439.796875 279.398438 436.519531 279.398438 432.519531 L 279.398438 396.132812 C 279.398438 392.128906 276.121094 388.855469 272.121094 388.855469 Z M 247.863281 390.066406 C 247.863281 389.339844 248.347656 388.855469 249.074219 388.855469 L 261.203125 388.855469 C 261.929688 388.855469 262.417969 389.339844 262.417969 390.066406 L 262.417969 392.492188 C 262.417969 393.21875 261.929688 393.707031 261.203125 393.707031 L 249.074219 393.707031 C 248.347656 393.707031 247.863281 393.21875 247.863281 392.492188 Z M 274.546875 432.519531 C 274.546875 433.851562 273.453125 434.945312 272.121094 434.945312 L 238.160156 434.945312 C 236.824219 434.945312 235.734375 433.851562 235.734375 432.519531 L 235.734375 396.132812 C 235.734375 394.796875 236.824219 393.707031 238.160156 393.707031 L 243.132812 393.707031 C 243.738281 396.496094 246.164062 398.558594 249.074219 398.558594 L 261.203125 398.558594 C 264.113281 398.558594 266.539062 396.496094 267.148438 393.707031 L 272.121094 393.707031 C 273.453125 393.707031 274.546875 394.796875 274.546875 396.132812 Z M 274.546875 432.519531 " fill-opacity="1" fill-rule="nonzero"/></g><path fill="#5e17eb" d="M 264.84375 403.410156 L 245.4375 403.410156 C 244.101562 403.410156 243.011719 404.5 243.011719 405.835938 C 243.011719 407.167969 244.101562 408.261719 245.4375 408.261719 L 264.84375 408.261719 C 266.175781 408.261719 267.269531 407.167969 267.269531 405.835938 C 267.269531 404.5 266.175781 403.410156 264.84375 403.410156 Z M 264.84375 403.410156 " fill-opacity="1" fill-rule="nonzero"/><path fill="#5e17eb" d="M 264.84375 413.113281 L 245.4375 413.113281 C 244.101562 413.113281 243.011719 414.203125 243.011719 415.539062 C 243.011719 416.871094 244.101562 417.964844 245.4375 417.964844 L 264.84375 417.964844 C 266.175781 417.964844 267.269531 416.871094 267.269531 415.539062 C 267.269531 414.203125 266.175781 413.113281 264.84375 413.113281 Z M 264.84375 413.113281 " fill-opacity="1" fill-rule="nonzero"/><path fill="#5e17eb" d="M 264.84375 422.816406 L 245.4375 422.816406 C 244.101562 422.816406 243.011719 423.90625 243.011719 425.242188 C 243.011719 426.574219 244.101562 427.667969 245.4375 427.667969 L 264.84375 427.667969 C 266.175781 427.667969 267.269531 426.574219 267.269531 425.242188 C 267.269531 423.90625 266.175781 422.816406 264.84375 422.816406 Z M 264.84375 422.816406 " fill-opacity="1" fill-rule="nonzero"/><path fill="#5e17eb" d="M 152.648438 380.363281 C 152.890625 380.363281 153.136719 380.363281 153.378906 380.363281 C 158.472656 372.238281 165.628906 365.445312 174.117188 360.714844 C 173.996094 359.257812 173.875 357.683594 173.875 356.105469 C 173.875 355.863281 173.875 355.742188 173.875 355.5 C 162.960938 361.078125 153.863281 369.8125 147.796875 380.484375 C 148.160156 380.484375 148.527344 380.363281 148.890625 380.363281 Z M 152.648438 380.363281 " fill-opacity="1" fill-rule="nonzero"/><g clip-path="url(#7945ca963d)"><path fill="#5e17eb" d="M 253.441406 444.648438 L 247.617188 444.648438 C 243.738281 449.984375 238.886719 454.472656 233.308594 458.230469 C 229.910156 456.777344 226.394531 455.199219 223.726562 454.105469 C 222.148438 453.378906 220.933594 452.894531 220.085938 452.53125 L 218.023438 445.859375 C 222.996094 439.550781 226.03125 430.699219 226.03125 422.570312 C 226.03125 408.015625 215.71875 396.132812 202.984375 396.132812 C 190.25 396.132812 179.941406 408.015625 179.941406 422.570312 C 179.941406 430.699219 182.972656 439.550781 187.945312 445.859375 L 185.882812 452.410156 C 185.15625 452.773438 183.820312 453.257812 182.246094 453.984375 C 179.210938 455.320312 175.089844 457.140625 171.207031 458.714844 C 164.777344 454.59375 159.199219 449.375 154.953125 443.070312 C 154.226562 443.191406 153.5 443.3125 152.648438 443.3125 L 149.253906 443.3125 C 153.621094 450.226562 159.199219 456.167969 165.871094 460.898438 C 162.960938 462.113281 160.777344 463.082031 160.414062 463.203125 C 159.683594 463.445312 159.078125 464.054688 158.957031 464.78125 L 153.257812 485.035156 C 153.011719 485.761719 153.257812 486.613281 153.621094 487.21875 C 153.984375 487.824219 154.832031 488.1875 155.5625 488.1875 L 250.167969 488.1875 C 250.894531 488.1875 251.621094 487.824219 252.105469 487.21875 C 252.59375 486.613281 252.714844 485.886719 252.46875 485.035156 L 246.769531 464.78125 C 246.527344 464.054688 246.042969 463.445312 245.316406 463.203125 C 244.949219 463.082031 242.039062 461.871094 238.402344 460.171875 C 244.34375 456.046875 249.4375 450.710938 253.441406 444.648438 Z M 184.792969 422.570312 C 184.792969 410.6875 192.917969 400.984375 202.984375 400.984375 C 213.050781 400.984375 221.179688 410.6875 221.179688 422.570312 C 221.179688 434.457031 213.050781 449.5 202.984375 449.5 C 192.917969 449.5 184.792969 434.578125 184.792969 422.570312 Z M 242.523438 467.449219 L 247.011719 483.460938 L 158.835938 483.460938 L 163.324219 467.449219 C 165.507812 466.480469 170.84375 464.296875 184.0625 458.472656 C 188.914062 456.410156 188.914062 456.289062 189.277344 456.167969 C 189.644531 455.804688 190.007812 455.441406 190.128906 454.957031 L 191.703125 449.863281 C 194.980469 452.652344 198.859375 454.351562 202.863281 454.351562 C 206.867188 454.351562 210.746094 452.652344 214.023438 449.863281 L 215.597656 454.957031 C 215.71875 455.441406 216.082031 455.925781 216.449219 456.167969 C 216.691406 456.410156 216.8125 456.410156 221.542969 458.472656 C 235.003906 464.175781 240.339844 466.480469 242.523438 467.449219 Z M 242.523438 467.449219 " fill-opacity="1" fill-rule="nonzero"/></g><g clip-path="url(#d6649c951c)"><path fill="#5e17eb" d="M 546.089844 171.722656 L 535.367188 171.722656 L 535.367188 87.976562 C 535.367188 86.664062 534.296875 85.585938 532.984375 85.585938 C 531.675781 85.585938 530.605469 86.664062 530.605469 87.976562 L 530.605469 95.144531 L 525.839844 95.144531 C 524.527344 95.144531 523.457031 96.21875 523.457031 97.535156 C 523.457031 98.847656 524.527344 99.921875 525.839844 99.921875 L 530.605469 99.921875 L 530.605469 104.703125 L 525.839844 104.703125 C 524.527344 104.703125 523.457031 105.777344 523.457031 107.089844 C 523.457031 108.40625 524.527344 109.480469 525.839844 109.480469 L 530.605469 109.480469 L 530.605469 114.257812 L 525.839844 114.257812 C 524.527344 114.257812 523.457031 115.335938 523.457031 116.648438 C 523.457031 117.964844 524.527344 119.039062 525.839844 119.039062 L 530.605469 119.039062 L 530.605469 123.816406 L 525.839844 123.816406 C 524.527344 123.816406 523.457031 124.890625 523.457031 126.207031 C 523.457031 127.519531 524.527344 128.59375 525.839844 128.59375 L 530.605469 128.59375 L 530.605469 133.375 L 525.839844 133.375 C 524.527344 133.375 523.457031 134.449219 523.457031 135.761719 C 523.457031 137.078125 524.527344 138.152344 525.839844 138.152344 L 530.605469 138.152344 L 530.605469 142.933594 L 525.839844 142.933594 C 524.527344 142.933594 523.457031 144.007812 523.457031 145.320312 C 523.457031 146.636719 524.527344 147.710938 525.839844 147.710938 L 530.605469 147.710938 L 530.605469 152.488281 L 525.839844 152.488281 C 524.527344 152.488281 523.457031 153.5625 523.457031 154.878906 C 523.457031 156.191406 524.527344 157.269531 525.839844 157.269531 L 530.605469 157.269531 L 530.605469 162.046875 L 518.691406 162.046875 L 518.691406 109.003906 C 518.691406 106.375 516.546875 104.222656 513.925781 104.222656 L 509.160156 104.222656 C 506.539062 104.222656 504.394531 106.375 504.394531 109.003906 L 504.394531 162.164062 L 503.320312 162.164062 C 503.320312 163.71875 503.320312 165.390625 503.203125 166.945312 L 504.394531 166.945312 C 507.015625 166.945312 509.160156 164.792969 509.160156 162.164062 L 509.160156 109.003906 L 513.925781 109.003906 L 513.925781 162.046875 C 513.925781 164.675781 516.070312 166.824219 518.691406 166.824219 L 530.605469 166.824219 L 530.605469 171.605469 L 497.960938 171.605469 C 500.460938 155.835938 495.578125 139.226562 483.542969 127.042969 C 463.527344 107.089844 431.003906 107.089844 410.988281 127.160156 C 390.972656 147.234375 390.972656 179.847656 410.988281 199.917969 C 420.996094 209.832031 434.101562 214.96875 447.328125 214.96875 C 458.167969 214.96875 469.007812 211.507812 478.183594 204.578125 L 481.875 208.28125 L 481.042969 209.117188 C 480.089844 210.074219 480.089844 211.507812 481.042969 212.460938 L 503.796875 235.28125 C 505.941406 237.429688 508.683594 238.386719 511.421875 238.386719 C 514.164062 238.386719 516.902344 237.3125 519.046875 235.28125 C 523.21875 231.097656 523.21875 224.289062 519.046875 220.109375 L 502.964844 204.097656 L 496.171875 197.289062 C 495.21875 196.332031 493.671875 196.332031 492.835938 197.289062 L 492.003906 198.125 L 488.308594 194.421875 C 492.480469 188.925781 495.339844 182.832031 497.007812 176.503906 L 546.089844 176.503906 C 547.402344 176.503906 548.472656 175.425781 548.472656 174.113281 C 548.472656 172.796875 547.402344 171.722656 546.089844 171.722656 Z M 515.59375 223.574219 C 517.976562 225.960938 517.976562 229.664062 515.59375 232.054688 C 513.210938 234.324219 509.515625 234.445312 507.132812 232.054688 L 492.835938 217.71875 L 501.296875 209.234375 Z M 494.503906 202.425781 L 497.839844 205.773438 L 489.382812 214.253906 L 486.046875 210.910156 Z M 483.1875 193.109375 C 482.351562 194.0625 482.472656 195.496094 483.304688 196.332031 L 488.546875 201.589844 L 486.285156 203.859375 L 485.210938 204.933594 L 479.96875 199.679688 C 479.136719 198.84375 477.707031 198.722656 476.753906 199.558594 C 458.167969 214.851562 431.363281 213.535156 414.324219 196.453125 C 408.605469 190.71875 404.675781 183.789062 402.53125 176.503906 L 492.003906 176.503906 C 490.335938 182.355469 487.355469 188.089844 483.1875 193.109375 Z M 493.195312 171.722656 L 401.457031 171.722656 C 398.957031 157.148438 403.246094 141.738281 414.324219 130.507812 C 423.378906 121.425781 435.414062 116.886719 447.328125 116.886719 C 459.238281 116.886719 471.152344 121.425781 480.207031 130.507812 C 491.40625 141.738281 495.816406 157.148438 493.195312 171.722656 Z M 493.195312 171.722656 " fill-opacity="1" fill-rule="nonzero"/></g><path fill="#5e17eb" d="M 490.214844 114.976562 C 487.59375 114.976562 485.449219 117.125 485.449219 119.753906 L 485.449219 122.265625 C 485.925781 122.742188 486.523438 123.21875 487 123.699219 C 488.191406 124.890625 489.261719 125.96875 490.214844 127.28125 L 490.214844 119.753906 L 494.980469 119.753906 L 494.980469 133.734375 C 496.886719 136.839844 498.4375 140.0625 499.746094 143.289062 L 499.746094 119.875 C 499.746094 117.246094 497.601562 115.09375 494.980469 115.09375 L 490.214844 115.09375 Z M 490.214844 114.976562 " fill-opacity="1" fill-rule="nonzero"/><path fill="#5e17eb" d="M 447.445312 107.089844 L 447.445312 107.210938 C 448.996094 107.210938 450.664062 107.332031 452.210938 107.449219 L 452.210938 107.089844 L 456.976562 107.089844 L 456.976562 108.046875 C 458.644531 108.285156 460.191406 108.644531 461.742188 109.121094 L 461.742188 107.089844 C 461.742188 104.464844 459.597656 102.3125 456.976562 102.3125 L 452.210938 102.3125 C 449.472656 102.3125 447.445312 104.464844 447.445312 107.089844 Z M 447.445312 107.089844 " fill-opacity="1" fill-rule="nonzero"/><path fill="#5e17eb" d="M 428.382812 126.207031 L 428.382812 162.164062 L 405.507812 162.164062 C 405.507812 163.71875 405.507812 165.390625 405.628906 166.945312 L 428.382812 166.945312 C 431.003906 166.945312 433.148438 164.792969 433.148438 162.164062 L 433.148438 124.175781 C 431.480469 124.652344 429.933594 125.371094 428.382812 126.207031 Z M 428.382812 126.207031 " fill-opacity="1" fill-rule="nonzero"/><path fill="#5e17eb" d="M 447.445312 121.667969 L 447.445312 151.292969 L 442.679688 151.292969 L 442.679688 121.90625 C 441.011719 122.023438 439.464844 122.382812 437.914062 122.742188 L 437.914062 151.292969 C 437.914062 153.921875 440.058594 156.074219 442.679688 156.074219 L 447.445312 156.074219 C 450.066406 156.074219 452.210938 153.921875 452.210938 151.292969 L 452.210938 122.023438 C 450.542969 121.785156 448.996094 121.667969 447.445312 121.667969 Z M 447.445312 121.667969 " fill-opacity="1" fill-rule="nonzero"/><path fill="#5e17eb" d="M 475.917969 140.421875 L 471.152344 140.421875 C 468.53125 140.421875 466.386719 142.574219 466.386719 145.203125 L 466.386719 162.164062 L 461.621094 162.164062 L 461.621094 124.175781 C 460.074219 123.578125 458.523438 123.101562 456.855469 122.742188 L 456.855469 162.046875 C 456.855469 164.675781 459 166.824219 461.621094 166.824219 L 466.386719 166.824219 C 469.007812 166.824219 471.152344 164.675781 471.152344 162.046875 L 471.152344 145.082031 L 475.917969 145.082031 L 475.917969 162.046875 C 475.917969 164.675781 478.0625 166.824219 480.683594 166.824219 L 485.449219 166.824219 C 486.878906 166.824219 488.191406 166.109375 489.144531 165.03125 C 489.382812 158.582031 488.191406 152.25 485.449219 146.277344 L 485.449219 162.046875 L 480.683594 162.046875 L 480.683594 145.203125 C 480.683594 142.574219 478.539062 140.421875 475.917969 140.421875 Z M 475.917969 140.421875 " fill-opacity="1" fill-rule="nonzero"/><path fill="#5e17eb" d="M 223.296875 208.558594 L 184.59375 208.558594 C 183.339844 208.558594 182.316406 209.582031 182.316406 210.832031 C 182.316406 212.082031 183.339844 213.105469 184.59375 213.105469 L 224.550781 213.105469 C 223.753906 211.742188 223.296875 210.152344 223.296875 208.558594 Z M 223.296875 208.558594 " fill-opacity="1" fill-rule="nonzero"/><path fill="#5e17eb" d="M 172.296875 115.574219 C 171.273438 114.78125 169.910156 115.007812 169.113281 116.03125 L 163.535156 123.417969 L 161.027344 121.144531 C 160.117188 120.351562 158.636719 120.351562 157.839844 121.257812 C 157.042969 122.167969 157.042969 123.644531 157.957031 124.441406 L 162.28125 128.421875 C 162.738281 128.761719 163.304688 128.988281 163.875 128.988281 C 163.988281 128.988281 163.988281 128.988281 164.101562 128.988281 C 164.785156 128.875 165.355469 128.648438 165.695312 128.078125 L 172.753906 118.644531 C 173.550781 117.847656 173.324219 116.371094 172.296875 115.574219 Z M 172.296875 115.574219 " fill-opacity="1" fill-rule="nonzero"/><path fill="#5e17eb" d="M 239.234375 110.800781 L 184.59375 110.800781 C 183.339844 110.800781 182.316406 111.824219 182.316406 113.074219 C 182.316406 114.324219 183.339844 115.347656 184.59375 115.347656 L 239.234375 115.347656 C 240.484375 115.347656 241.511719 114.324219 241.511719 113.074219 C 241.511719 111.824219 240.484375 110.800781 239.234375 110.800781 Z M 239.234375 110.800781 " fill-opacity="1" fill-rule="nonzero"/><path fill="#5e17eb" d="M 239.234375 119.894531 L 184.59375 119.894531 C 183.339844 119.894531 182.316406 120.917969 182.316406 122.167969 C 182.316406 123.417969 183.339844 124.441406 184.59375 124.441406 L 239.234375 124.441406 C 240.484375 124.441406 241.511719 123.417969 241.511719 122.167969 C 241.511719 120.917969 240.484375 119.894531 239.234375 119.894531 Z M 239.234375 119.894531 " fill-opacity="1" fill-rule="nonzero"/><path fill="#5e17eb" d="M 239.234375 128.988281 L 184.59375 128.988281 C 183.339844 128.988281 182.316406 130.011719 182.316406 131.261719 C 182.316406 132.511719 183.339844 133.535156 184.59375 133.535156 L 239.234375 133.535156 C 240.484375 133.535156 241.511719 132.511719 241.511719 131.261719 C 241.511719 130.011719 240.484375 128.988281 239.234375 128.988281 Z M 239.234375 128.988281 " fill-opacity="1" fill-rule="nonzero"/><path fill="#5e17eb" d="M 241.511719 152.859375 C 241.511719 151.609375 240.484375 150.585938 239.234375 150.585938 L 184.59375 150.585938 C 183.339844 150.585938 182.316406 151.609375 182.316406 152.859375 C 182.316406 154.109375 183.339844 155.132812 184.59375 155.132812 L 239.234375 155.132812 C 240.484375 155.132812 241.511719 154.109375 241.511719 152.859375 Z M 241.511719 152.859375 " fill-opacity="1" fill-rule="nonzero"/><path fill="#5e17eb" d="M 172.296875 155.359375 C 171.273438 154.566406 169.910156 154.792969 169.113281 155.816406 L 163.535156 163.203125 L 161.027344 160.929688 C 160.117188 160.136719 158.636719 160.136719 157.839844 161.042969 C 157.042969 161.953125 157.042969 163.429688 157.957031 164.226562 L 162.28125 168.207031 C 162.738281 168.546875 163.304688 168.773438 163.875 168.773438 C 163.988281 168.773438 163.988281 168.773438 164.101562 168.773438 C 164.785156 168.660156 165.355469 168.433594 165.695312 167.863281 L 172.753906 158.429688 C 173.550781 157.632812 173.324219 156.15625 172.296875 155.359375 Z M 172.296875 155.359375 " fill-opacity="1" fill-rule="nonzero"/><path fill="#5e17eb" d="M 171.386719 195.601562 C 170.476562 194.691406 169.113281 194.691406 168.199219 195.601562 L 165.242188 198.554688 L 162.28125 195.601562 C 161.371094 194.691406 160.003906 194.691406 159.09375 195.601562 C 158.183594 196.511719 158.183594 197.875 159.09375 198.785156 L 162.054688 201.738281 L 159.09375 204.695312 C 158.183594 205.605469 158.183594 206.96875 159.09375 207.878906 C 159.550781 208.332031 160.117188 208.558594 160.6875 208.558594 C 161.257812 208.558594 161.824219 208.332031 162.28125 207.878906 L 165.242188 204.921875 L 168.199219 207.878906 C 168.65625 208.332031 169.226562 208.558594 169.792969 208.558594 C 170.363281 208.558594 170.933594 208.332031 171.386719 207.878906 C 172.296875 206.96875 172.296875 205.605469 171.386719 204.695312 L 168.429688 201.738281 L 171.386719 198.785156 C 172.296875 197.875 172.296875 196.511719 171.386719 195.601562 Z M 171.386719 195.601562 " fill-opacity="1" fill-rule="nonzero"/><path fill="#5e17eb" d="M 182.316406 201.738281 C 182.316406 202.988281 183.339844 204.011719 184.59375 204.011719 L 223.636719 204.011719 L 223.980469 199.464844 L 184.59375 199.464844 C 183.339844 199.464844 182.316406 200.488281 182.316406 201.738281 Z M 182.316406 201.738281 " fill-opacity="1" fill-rule="nonzero"/><path fill="#5e17eb" d="M 224.664062 190.371094 L 184.59375 190.371094 C 183.339844 190.371094 182.316406 191.394531 182.316406 192.644531 C 182.316406 193.894531 183.339844 194.917969 184.59375 194.917969 L 224.320312 194.917969 Z M 224.664062 190.371094 " fill-opacity="1" fill-rule="nonzero"/><path fill="#5e17eb" d="M 234.109375 168.773438 L 184.59375 168.773438 C 183.339844 168.773438 182.316406 169.796875 182.316406 171.046875 C 182.316406 172.296875 183.339844 173.320312 184.59375 173.320312 L 231.71875 173.320312 Z M 234.109375 168.773438 " fill-opacity="1" fill-rule="nonzero"/><path fill="#5e17eb" d="M 239.007812 159.679688 L 184.59375 159.679688 C 183.339844 159.679688 182.316406 160.703125 182.316406 161.953125 C 182.316406 163.203125 183.339844 164.226562 184.59375 164.226562 L 236.617188 164.226562 Z M 239.007812 159.679688 " fill-opacity="1" fill-rule="nonzero"/><g clip-path="url(#1cbd6fceca)"><path fill="#5e17eb" d="M 250.617188 205.832031 L 250.617188 225.609375 C 250.617188 228.109375 248.566406 230.15625 246.0625 230.15625 L 152.71875 230.15625 C 150.214844 230.15625 148.164062 228.109375 148.164062 225.609375 L 148.164062 98.296875 C 148.164062 95.796875 150.214844 93.75 152.71875 93.75 L 246.0625 93.75 C 248.566406 93.75 250.617188 95.796875 250.617188 98.296875 L 250.617188 138.082031 L 255.171875 129.558594 L 255.171875 98.296875 C 255.171875 93.296875 251.074219 89.203125 246.0625 89.203125 L 152.71875 89.203125 C 147.710938 89.203125 143.613281 93.296875 143.613281 98.296875 L 143.613281 225.609375 C 143.613281 230.613281 147.710938 234.703125 152.71875 234.703125 L 246.0625 234.703125 C 251.074219 234.703125 255.171875 230.613281 255.171875 225.609375 L 255.171875 202.195312 C 254.941406 202.421875 254.714844 202.648438 254.488281 202.875 Z M 250.617188 205.832031 " fill-opacity="1" fill-rule="nonzero"/></g><path fill="#5e17eb" d="M 285.679688 121.601562 C 285.679688 121.601562 275.433594 116.144531 275.433594 116.144531 C 272.019531 114.324219 267.804688 115.6875 266.097656 118.984375 L 229.785156 186.621094 C 229.671875 186.847656 229.558594 187.1875 229.558594 187.53125 L 227.851562 208.332031 C 227.851562 208.332031 227.851562 208.445312 227.851562 208.445312 C 227.738281 211.058594 229.898438 213.105469 232.402344 213.105469 C 233.429688 213.105469 234.453125 212.765625 235.25 212.195312 C 235.25 212.195312 251.640625 199.238281 251.640625 199.238281 C 251.871094 199.011719 252.097656 198.785156 252.210938 198.554688 L 288.523438 130.921875 C 290.34375 127.625 288.980469 123.304688 285.679688 121.601562 Z M 232.402344 208.558594 L 233.769531 190.257812 L 247.203125 196.964844 Z M 249.933594 193.214844 L 235.363281 185.824219 L 260.632812 138.765625 L 275.320312 146.039062 Z M 284.539062 128.761719 L 277.367188 142.0625 L 262.683594 134.785156 L 269.96875 121.144531 C 270.539062 120.007812 272.019531 119.554688 273.15625 120.121094 L 283.402344 125.578125 C 283.972656 125.917969 284.3125 126.375 284.539062 126.941406 C 284.882812 127.625 284.769531 128.191406 284.539062 128.761719 Z M 284.539062 128.761719 " fill-opacity="1" fill-rule="nonzero"/><g clip-path="url(#d7de59acd3)"><path fill="#5e17eb" d="M 545.042969 343.351562 L 521.753906 343.351562 C 520.328125 343.351562 519.167969 344.511719 519.167969 345.9375 C 519.167969 347.363281 520.328125 348.523438 521.753906 348.523438 L 542.453125 348.523438 L 542.453125 384.75 L 501.054688 384.75 C 499.628906 384.75 498.464844 385.914062 498.464844 387.335938 C 498.464844 388.761719 499.628906 389.925781 501.054688 389.925781 L 545.042969 389.925781 C 546.464844 389.925781 547.628906 388.761719 547.628906 387.335938 L 547.628906 345.9375 C 547.628906 344.511719 546.464844 343.351562 545.042969 343.351562 " fill-opacity="1" fill-rule="nonzero"/></g><path fill="#5e17eb" d="M 438.953125 446.851562 L 418.253906 446.851562 L 418.253906 410.625 L 506.230469 410.625 L 506.230469 433.914062 C 506.230469 435.335938 507.390625 436.5 508.816406 436.5 C 510.242188 436.5 511.402344 435.335938 511.402344 433.914062 L 511.402344 408.039062 C 511.402344 406.613281 510.242188 405.449219 508.816406 405.449219 L 415.667969 405.449219 C 414.242188 405.449219 413.078125 406.613281 413.078125 408.039062 L 413.078125 449.4375 C 413.078125 450.863281 414.242188 452.023438 415.667969 452.023438 L 438.953125 452.023438 C 440.378906 452.023438 441.542969 450.863281 441.542969 449.4375 C 441.542969 448.011719 440.378906 446.851562 438.953125 446.851562 " fill-opacity="1" fill-rule="nonzero"/><g clip-path="url(#e73d90025d)"><path fill="#5e17eb" d="M 542.453125 441.675781 L 449.304688 441.675781 C 447.878906 441.675781 446.714844 442.835938 446.714844 444.261719 L 446.714844 485.664062 C 446.714844 487.085938 447.878906 488.25 449.304688 488.25 L 475.179688 488.25 C 476.605469 488.25 477.765625 487.085938 477.765625 485.664062 C 477.765625 484.238281 476.605469 483.074219 475.179688 483.074219 L 451.890625 483.074219 L 451.890625 446.851562 L 539.867188 446.851562 L 539.867188 483.074219 L 485.527344 483.074219 C 484.101562 483.074219 482.941406 484.238281 482.941406 485.664062 C 482.941406 487.085938 484.101562 488.25 485.527344 488.25 L 542.453125 488.25 C 543.878906 488.25 545.042969 487.085938 545.042969 485.664062 L 545.042969 444.261719 C 545.042969 442.835938 543.878906 441.675781 542.453125 441.675781 " fill-opacity="1" fill-rule="nonzero"/></g><g clip-path="url(#490ff9dd68)"><path fill="#5e17eb" d="M 405.375 377.390625 C 404.71875 376.148438 404.195312 374.875 403.800781 373.621094 C 403.457031 372.539062 402.457031 371.8125 401.324219 371.8125 L 394.964844 371.8125 C 393.539062 371.8125 392.378906 372.976562 392.378906 374.398438 C 392.378906 375.824219 393.539062 376.988281 394.964844 376.988281 L 399.503906 376.988281 C 399.644531 377.351562 399.796875 377.707031 399.949219 378.058594 L 396.746094 381.273438 C 395.734375 382.285156 395.734375 383.921875 396.746094 384.933594 L 407.722656 395.910156 C 408.734375 396.917969 410.371094 396.917969 411.378906 395.910156 L 414.59375 392.703125 C 414.949219 392.855469 415.300781 393.007812 415.667969 393.148438 L 415.667969 397.6875 C 415.667969 399.113281 416.828125 400.273438 418.253906 400.273438 L 433.777344 400.273438 C 435.203125 400.273438 436.367188 399.113281 436.367188 397.6875 L 436.367188 393.148438 C 436.730469 393.007812 437.082031 392.855469 437.4375 392.703125 L 440.652344 395.910156 C 441.664062 396.917969 443.300781 396.917969 444.3125 395.910156 L 450.292969 389.925781 L 490.703125 389.925781 C 492.128906 389.925781 493.292969 388.761719 493.292969 387.335938 C 493.292969 385.914062 492.128906 384.75 490.703125 384.75 L 455.410156 384.75 C 456.269531 383.730469 456.246094 382.234375 455.289062 381.273438 L 452.082031 378.058594 C 452.234375 377.707031 452.386719 377.351562 452.527344 376.988281 L 457.066406 376.988281 C 458.492188 376.988281 459.652344 375.824219 459.652344 374.398438 L 459.652344 358.875 C 459.652344 357.449219 458.492188 356.289062 457.066406 356.289062 L 452.527344 356.289062 C 452.386719 355.921875 452.234375 355.570312 452.082031 355.214844 L 455.289062 352.003906 C 456.246094 351.042969 456.269531 349.546875 455.410156 348.523438 L 511.402344 348.523438 C 512.828125 348.523438 513.992188 347.363281 513.992188 345.9375 C 513.992188 344.511719 512.828125 343.351562 511.402344 343.351562 L 450.292969 343.351562 L 444.3125 337.367188 C 443.300781 336.355469 441.664062 336.355469 440.652344 337.367188 L 437.4375 340.570312 C 437.082031 340.417969 436.730469 340.265625 436.367188 340.125 L 436.367188 335.585938 C 436.367188 334.164062 435.203125 333 433.777344 333 L 418.253906 333 C 416.828125 333 415.667969 334.164062 415.667969 335.585938 L 415.667969 340.125 C 415.300781 340.265625 414.949219 340.417969 414.59375 340.570312 L 411.378906 337.367188 C 410.371094 336.355469 408.734375 336.355469 407.722656 337.367188 L 396.746094 348.34375 C 395.734375 349.355469 395.734375 350.992188 396.746094 352.003906 L 399.949219 355.214844 C 399.796875 355.570312 399.644531 355.921875 399.503906 356.289062 L 394.964844 356.289062 C 393.539062 356.289062 392.378906 357.449219 392.378906 358.875 L 392.378906 364.050781 C 392.378906 365.476562 393.539062 366.636719 394.964844 366.636719 C 396.390625 366.636719 397.554688 365.476562 397.554688 364.050781 L 397.554688 361.460938 L 401.324219 361.460938 C 402.457031 361.460938 403.457031 360.734375 403.800781 359.652344 C 404.195312 358.398438 404.71875 357.125 405.375 355.882812 C 405.902344 354.882812 405.710938 353.648438 404.910156 352.851562 L 402.234375 350.171875 L 409.550781 342.855469 L 412.230469 345.535156 C 413.027344 346.332031 414.261719 346.523438 415.261719 346 C 416.503906 345.339844 417.777344 344.816406 419.03125 344.421875 C 420.113281 344.078125 420.839844 343.078125 420.839844 341.957031 L 420.839844 338.175781 L 431.191406 338.175781 L 431.191406 341.957031 C 431.191406 343.078125 431.917969 344.078125 433 344.421875 C 434.253906 344.816406 435.527344 345.339844 436.769531 346 C 437.769531 346.523438 439.003906 346.332031 439.800781 345.535156 L 442.480469 342.855469 L 449.800781 350.171875 L 447.121094 352.851562 C 446.320312 353.648438 446.128906 354.882812 446.65625 355.882812 C 447.3125 357.125 447.839844 358.398438 448.230469 359.652344 C 448.574219 360.734375 449.578125 361.460938 450.699219 361.460938 L 454.480469 361.460938 L 454.480469 371.8125 L 450.699219 371.8125 C 449.578125 371.8125 448.574219 372.539062 448.230469 373.621094 C 447.839844 374.875 447.3125 376.148438 446.65625 377.390625 C 446.128906 378.390625 446.320312 379.625 447.121094 380.425781 L 449.800781 383.101562 L 442.480469 390.421875 L 439.800781 387.742188 C 439.003906 386.941406 437.769531 386.75 436.769531 387.277344 C 435.527344 387.933594 434.253906 388.460938 433 388.855469 C 431.917969 389.199219 431.191406 390.199219 431.191406 391.320312 L 431.191406 395.101562 L 420.839844 395.101562 L 420.839844 391.320312 C 420.839844 390.199219 420.113281 389.199219 419.03125 388.855469 C 417.777344 388.460938 416.503906 387.933594 415.261719 387.277344 C 414.261719 386.75 413.027344 386.941406 412.230469 387.742188 L 409.550781 390.421875 L 402.234375 383.101562 L 404.910156 380.425781 C 405.710938 379.625 405.902344 378.390625 405.375 377.390625 " fill-opacity="1" fill-rule="nonzero"/></g><path fill="#5e17eb" d="M 437.09375 373.753906 C 438.4375 374.277344 439.933594 373.621094 440.449219 372.289062 C 441.175781 370.4375 441.542969 368.539062 441.542969 366.636719 C 441.542969 358.078125 434.578125 351.113281 426.015625 351.113281 C 417.457031 351.113281 410.492188 358.078125 410.492188 366.636719 C 410.492188 375.199219 417.457031 382.164062 426.015625 382.164062 C 427.917969 382.164062 429.816406 381.796875 431.667969 381.070312 C 433 380.554688 433.648438 379.050781 433.132812 377.714844 C 432.605469 376.390625 431.121094 375.734375 429.777344 376.25 C 428.53125 376.746094 427.269531 376.988281 426.015625 376.988281 C 420.304688 376.988281 415.667969 372.347656 415.667969 366.636719 C 415.667969 360.925781 420.304688 356.289062 426.015625 356.289062 C 431.726562 356.289062 436.367188 360.925781 436.367188 366.636719 C 436.367188 367.890625 436.125 369.152344 435.628906 370.398438 C 435.113281 371.730469 435.769531 373.226562 437.09375 373.753906 " fill-opacity="1" fill-rule="nonzero"/><path fill="#5e17eb" d="M 470.003906 374.398438 C 468.578125 374.398438 467.417969 375.5625 467.417969 376.988281 C 467.417969 378.414062 468.578125 379.574219 470.003906 379.574219 L 480.355469 379.574219 C 481.777344 379.574219 482.941406 378.414062 482.941406 376.988281 C 482.941406 375.5625 481.777344 374.398438 480.355469 374.398438 L 477.765625 374.398438 L 477.765625 356.289062 C 477.765625 355.238281 477.140625 354.296875 476.167969 353.902344 C 475.199219 353.496094 474.085938 353.71875 473.347656 354.457031 L 468.175781 359.632812 C 467.164062 360.644531 467.164062 362.28125 468.175781 363.292969 C 469.183594 364.300781 470.824219 364.300781 471.832031 363.292969 L 472.589844 362.535156 L 472.589844 374.398438 L 470.003906 374.398438 " fill-opacity="1" fill-rule="nonzero"/><path fill="#5e17eb" d="M 532.105469 353.699219 L 501.054688 353.699219 C 499.628906 353.699219 498.464844 354.863281 498.464844 356.289062 C 498.464844 357.710938 499.628906 358.875 501.054688 358.875 L 532.105469 358.875 C 533.527344 358.875 534.691406 357.710938 534.691406 356.289062 C 534.691406 354.863281 533.527344 353.699219 532.105469 353.699219 " fill-opacity="1" fill-rule="nonzero"/><path fill="#5e17eb" d="M 532.105469 364.050781 L 488.117188 364.050781 C 486.691406 364.050781 485.527344 365.210938 485.527344 366.636719 C 485.527344 368.0625 486.691406 369.226562 488.117188 369.226562 L 532.105469 369.226562 C 533.527344 369.226562 534.691406 368.0625 534.691406 366.636719 C 534.691406 365.210938 533.527344 364.050781 532.105469 364.050781 " fill-opacity="1" fill-rule="nonzero"/><path fill="#5e17eb" d="M 532.105469 374.398438 L 493.292969 374.398438 C 491.867188 374.398438 490.703125 375.5625 490.703125 376.988281 C 490.703125 378.414062 491.867188 379.574219 493.292969 379.574219 L 532.105469 379.574219 C 533.527344 379.574219 534.691406 378.414062 534.691406 376.988281 C 534.691406 375.5625 533.527344 374.398438 532.105469 374.398438 " fill-opacity="1" fill-rule="nonzero"/><path fill="#5e17eb" d="M 526.171875 413.96875 C 525.160156 412.960938 523.523438 412.960938 522.511719 413.96875 L 517.335938 419.144531 C 516.324219 420.15625 516.324219 421.792969 517.335938 422.804688 L 522.511719 427.980469 C 523.015625 428.484375 523.675781 428.738281 524.339844 428.738281 C 525.007812 428.738281 525.664062 428.484375 526.171875 427.980469 C 527.179688 426.96875 527.179688 425.332031 526.171875 424.320312 L 525.414062 423.5625 L 534.691406 423.5625 C 536.117188 423.5625 537.277344 422.398438 537.277344 420.976562 L 537.277344 397.6875 C 537.277344 396.261719 536.117188 395.101562 534.691406 395.101562 C 533.265625 395.101562 532.105469 396.261719 532.105469 397.6875 L 532.105469 418.386719 L 525.414062 418.386719 L 526.171875 417.628906 C 527.179688 416.617188 527.179688 414.980469 526.171875 413.96875 " fill-opacity="1" fill-rule="nonzero"/><g clip-path="url(#9cda848c19)"><path fill="#5e17eb" d="M 422.671875 460.546875 C 421.660156 459.535156 420.023438 459.535156 419.011719 460.546875 C 418 461.554688 418 463.195312 419.011719 464.203125 L 419.769531 464.960938 L 397.554688 464.960938 L 397.554688 428.738281 L 405.316406 428.738281 C 406.742188 428.738281 407.902344 427.574219 407.902344 426.148438 C 407.902344 424.726562 406.742188 423.5625 405.316406 423.5625 L 394.964844 423.5625 C 393.539062 423.5625 392.378906 424.726562 392.378906 426.148438 L 392.378906 467.550781 C 392.378906 468.976562 393.539062 470.136719 394.964844 470.136719 L 419.769531 470.136719 L 419.011719 470.894531 C 418 471.90625 418 473.542969 419.011719 474.554688 C 419.515625 475.058594 420.175781 475.3125 420.839844 475.3125 C 421.507812 475.3125 422.164062 475.058594 422.671875 474.554688 L 427.84375 469.378906 C 428.855469 468.367188 428.855469 466.730469 427.84375 465.71875 L 422.671875 460.546875 " fill-opacity="1" fill-rule="nonzero"/></g><path fill="#5e17eb" d="M 441.542969 423.5625 C 441.542969 419.277344 438.0625 415.800781 433.777344 415.800781 C 429.492188 415.800781 426.015625 419.277344 426.015625 423.5625 C 426.015625 424.988281 427.179688 426.148438 428.605469 426.148438 C 430.027344 426.148438 431.191406 424.988281 431.191406 423.5625 C 431.191406 422.136719 432.351562 420.976562 433.777344 420.976562 C 434.980469 420.976562 435.992188 421.792969 436.285156 422.90625 L 426.449219 437.652344 C 425.925781 438.449219 425.875 439.472656 426.320312 440.308594 C 426.773438 441.148438 427.652344 441.675781 428.605469 441.675781 L 438.953125 441.675781 C 440.378906 441.675781 441.542969 440.511719 441.542969 439.085938 C 441.542969 437.664062 440.378906 436.5 438.953125 436.5 L 433.433594 436.5 L 441.105469 424.996094 C 441.390625 424.574219 441.542969 424.078125 441.542969 423.5625 " fill-opacity="1" fill-rule="nonzero"/><path fill="#5e17eb" d="M 495.878906 418.386719 L 464.828125 418.386719 C 463.402344 418.386719 462.242188 419.550781 462.242188 420.976562 C 462.242188 422.398438 463.402344 423.5625 464.828125 423.5625 L 495.878906 423.5625 C 497.304688 423.5625 498.464844 422.398438 498.464844 420.976562 C 498.464844 419.550781 497.304688 418.386719 495.878906 418.386719 " fill-opacity="1" fill-rule="nonzero"/><path fill="#5e17eb" d="M 495.878906 428.738281 L 451.890625 428.738281 C 450.464844 428.738281 449.304688 429.898438 449.304688 431.324219 C 449.304688 432.75 450.464844 433.914062 451.890625 433.914062 L 495.878906 433.914062 C 497.304688 433.914062 498.464844 432.75 498.464844 431.324219 C 498.464844 429.898438 497.304688 428.738281 495.878906 428.738281 " fill-opacity="1" fill-rule="nonzero"/><path fill="#5e17eb" d="M 470.003906 452.023438 C 465.71875 452.023438 462.242188 455.503906 462.242188 459.789062 C 462.242188 461.210938 463.402344 462.375 464.828125 462.375 C 466.253906 462.375 467.417969 461.210938 467.417969 459.789062 C 467.417969 458.363281 468.578125 457.199219 470.003906 457.199219 C 471.429688 457.199219 472.589844 458.363281 472.589844 459.789062 C 472.589844 461.210938 471.429688 462.375 470.003906 462.375 C 468.578125 462.375 467.417969 463.539062 467.417969 464.960938 C 467.417969 466.386719 468.578125 467.550781 470.003906 467.550781 C 471.429688 467.550781 472.589844 468.710938 472.589844 470.136719 C 472.589844 471.5625 471.429688 472.726562 470.003906 472.726562 C 468.578125 472.726562 467.417969 471.5625 467.417969 470.136719 C 467.417969 468.710938 466.253906 467.550781 464.828125 467.550781 C 463.402344 467.550781 462.242188 468.710938 462.242188 470.136719 C 462.242188 474.421875 465.71875 477.898438 470.003906 477.898438 C 474.289062 477.898438 477.765625 474.421875 477.765625 470.136719 C 477.765625 468.144531 477.019531 466.335938 475.785156 464.960938 C 477.019531 463.589844 477.765625 461.777344 477.765625 459.789062 C 477.765625 455.503906 474.289062 452.023438 470.003906 452.023438 " fill-opacity="1" fill-rule="nonzero"/><path fill="#5e17eb" d="M 529.515625 457.199219 C 530.941406 457.199219 532.105469 456.039062 532.105469 454.613281 C 532.105469 453.1875 530.941406 452.023438 529.515625 452.023438 L 498.464844 452.023438 C 497.039062 452.023438 495.878906 453.1875 495.878906 454.613281 C 495.878906 456.039062 497.039062 457.199219 498.464844 457.199219 L 529.515625 457.199219 " fill-opacity="1" fill-rule="nonzero"/><path fill="#5e17eb" d="M 485.527344 464.960938 C 485.527344 466.386719 486.691406 467.550781 488.117188 467.550781 L 529.515625 467.550781 C 530.941406 467.550781 532.105469 466.386719 532.105469 464.960938 C 532.105469 463.539062 530.941406 462.375 529.515625 462.375 L 488.117188 462.375 C 486.691406 462.375 485.527344 463.539062 485.527344 464.960938 " fill-opacity="1" fill-rule="nonzero"/><path fill="#5e17eb" d="M 488.117188 477.898438 L 529.515625 477.898438 C 530.941406 477.898438 532.105469 476.738281 532.105469 475.3125 C 532.105469 473.886719 530.941406 472.726562 529.515625 472.726562 L 488.117188 472.726562 C 486.691406 472.726562 485.527344 473.886719 485.527344 475.3125 C 485.527344 476.738281 486.691406 477.898438 488.117188 477.898438 " fill-opacity="1" fill-rule="nonzero"/><g fill="#000000" fill-opacity="1"><g transform="translate(413.078684, 264.500018)"><g><path d="M 9.25 -5.453125 L 7.484375 -10.265625 C 7.398438 -10.484375 7.3125 -10.738281 7.21875 -11.03125 C 7.125 -11.320312 7.03125 -11.640625 6.9375 -11.984375 C 6.851562 -11.640625 6.765625 -11.316406 6.671875 -11.015625 C 6.578125 -10.722656 6.488281 -10.46875 6.40625 -10.25 L 4.65625 -5.453125 Z M 14 0 L 11.921875 0 C 11.679688 0 11.488281 -0.0546875 11.34375 -0.171875 C 11.195312 -0.285156 11.085938 -0.429688 11.015625 -0.609375 L 9.9375 -3.5625 L 3.953125 -3.5625 L 2.875 -0.609375 C 2.820312 -0.453125 2.71875 -0.3125 2.5625 -0.1875 C 2.40625 -0.0625 2.210938 0 1.984375 0 L -0.109375 0 L 5.578125 -14.453125 L 8.3125 -14.453125 Z M 14 0 "/></g></g></g><g fill="#000000" fill-opacity="1"><g transform="translate(430.88321, 264.500018)"><g><path d="M 13.796875 -14.453125 L 13.796875 0 L 12.421875 0 C 12.203125 0 12.019531 -0.03125 11.875 -0.09375 C 11.738281 -0.164062 11.601562 -0.285156 11.46875 -0.453125 L 3.921875 -10.09375 C 3.960938 -9.65625 3.984375 -9.25 3.984375 -8.875 L 3.984375 0 L 1.609375 0 L 1.609375 -14.453125 L 3.015625 -14.453125 C 3.128906 -14.453125 3.226562 -14.445312 3.3125 -14.4375 C 3.394531 -14.4375 3.46875 -14.421875 3.53125 -14.390625 C 3.59375 -14.359375 3.65625 -14.3125 3.71875 -14.25 C 3.78125 -14.195312 3.847656 -14.125 3.921875 -14.03125 L 11.5 -4.34375 C 11.476562 -4.582031 11.460938 -4.8125 11.453125 -5.03125 C 11.441406 -5.257812 11.4375 -5.472656 11.4375 -5.671875 L 11.4375 -14.453125 Z M 13.796875 -14.453125 "/></g></g></g><g fill="#000000" fill-opacity="1"><g transform="translate(450.207133, 264.500018)"><g><path d="M 9.25 -5.453125 L 7.484375 -10.265625 C 7.398438 -10.484375 7.3125 -10.738281 7.21875 -11.03125 C 7.125 -11.320312 7.03125 -11.640625 6.9375 -11.984375 C 6.851562 -11.640625 6.765625 -11.316406 6.671875 -11.015625 C 6.578125 -10.722656 6.488281 -10.46875 6.40625 -10.25 L 4.65625 -5.453125 Z M 14 0 L 11.921875 0 C 11.679688 0 11.488281 -0.0546875 11.34375 -0.171875 C 11.195312 -0.285156 11.085938 -0.429688 11.015625 -0.609375 L 9.9375 -3.5625 L 3.953125 -3.5625 L 2.875 -0.609375 C 2.820312 -0.453125 2.71875 -0.3125 2.5625 -0.1875 C 2.40625 -0.0625 2.210938 0 1.984375 0 L -0.109375 0 L 5.578125 -14.453125 L 8.3125 -14.453125 Z M 14 0 "/></g></g></g><g fill="#000000" fill-opacity="1"><g transform="translate(468.011661, 264.500018)"><g><path d="M 10.078125 -2.21875 L 10.078125 0 L 1.609375 0 L 1.609375 -14.453125 L 4.296875 -14.453125 L 4.296875 -2.21875 Z M 10.078125 -2.21875 "/></g></g></g><g fill="#000000" fill-opacity="1"><g transform="translate(482.317565, 264.500018)"><g><path d="M 7.8125 -5.59375 L 7.8125 0 L 5.140625 0 L 5.140625 -5.59375 L -0.125 -14.453125 L 2.234375 -14.453125 C 2.472656 -14.453125 2.660156 -14.394531 2.796875 -14.28125 C 2.929688 -14.175781 3.046875 -14.035156 3.140625 -13.859375 L 5.78125 -9.03125 C 5.9375 -8.738281 6.070312 -8.46875 6.1875 -8.21875 C 6.300781 -7.96875 6.40625 -7.710938 6.5 -7.453125 C 6.582031 -7.710938 6.679688 -7.96875 6.796875 -8.21875 C 6.910156 -8.46875 7.039062 -8.738281 7.1875 -9.03125 L 9.8125 -13.859375 C 9.894531 -14.003906 10.007812 -14.140625 10.15625 -14.265625 C 10.300781 -14.390625 10.484375 -14.453125 10.703125 -14.453125 L 13.09375 -14.453125 Z M 7.8125 -5.59375 "/></g></g></g><g fill="#000000" fill-opacity="1"><g transform="translate(499.192461, 264.500018)"><g><path d="M 11.5625 -13.46875 C 11.5625 -13.164062 11.476562 -12.882812 11.3125 -12.625 L 3.890625 -2.15625 L 11.40625 -2.15625 L 11.40625 0 L 0.40625 0 L 0.40625 -1.0625 C 0.40625 -1.195312 0.425781 -1.320312 0.46875 -1.4375 C 0.519531 -1.5625 0.582031 -1.679688 0.65625 -1.796875 L 8.09375 -12.3125 L 0.875 -12.3125 L 0.875 -14.453125 L 11.5625 -14.453125 Z M 11.5625 -13.46875 "/></g></g></g><g fill="#000000" fill-opacity="1"><g transform="translate(515.217691, 264.500018)"><g><path d="M 4.3125 -12.3125 L 4.3125 -8.3125 L 9.375 -8.3125 L 9.375 -6.234375 L 4.3125 -6.234375 L 4.3125 -2.15625 L 10.734375 -2.15625 L 10.734375 0 L 1.609375 0 L 1.609375 -14.453125 L 10.734375 -14.453125 L 10.734375 -12.3125 Z M 4.3125 -12.3125 "/></g></g></g><g fill="#000000" fill-opacity="1"><g transform="translate(149.237506, 517.54423)"><g><path d="M 17.296875 -14.453125 L 17.296875 0 L 14.921875 0 L 14.921875 -9.34375 C 14.921875 -9.71875 14.941406 -10.117188 14.984375 -10.546875 L 10.609375 -2.34375 C 10.398438 -1.945312 10.082031 -1.75 9.65625 -1.75 L 9.28125 -1.75 C 8.851562 -1.75 8.535156 -1.945312 8.328125 -2.34375 L 3.90625 -10.578125 C 3.925781 -10.359375 3.941406 -10.140625 3.953125 -9.921875 C 3.972656 -9.710938 3.984375 -9.519531 3.984375 -9.34375 L 3.984375 0 L 1.609375 0 L 1.609375 -14.453125 L 3.640625 -14.453125 C 3.753906 -14.453125 3.851562 -14.445312 3.9375 -14.4375 C 4.03125 -14.4375 4.113281 -14.421875 4.1875 -14.390625 C 4.257812 -14.367188 4.320312 -14.328125 4.375 -14.265625 C 4.425781 -14.210938 4.484375 -14.132812 4.546875 -14.03125 L 8.875 -6 C 8.988281 -5.789062 9.09375 -5.570312 9.1875 -5.34375 C 9.28125 -5.113281 9.375 -4.878906 9.46875 -4.640625 C 9.5625 -4.890625 9.65625 -5.128906 9.75 -5.359375 C 9.851562 -5.585938 9.960938 -5.804688 10.078125 -6.015625 L 14.34375 -14.03125 C 14.40625 -14.132812 14.460938 -14.210938 14.515625 -14.265625 C 14.578125 -14.328125 14.640625 -14.367188 14.703125 -14.390625 C 14.773438 -14.421875 14.851562 -14.4375 14.9375 -14.4375 C 15.03125 -14.445312 15.140625 -14.453125 15.265625 -14.453125 Z M 17.296875 -14.453125 "/></g></g></g><g fill="#000000" fill-opacity="1"><g transform="translate(172.050058, 517.54423)"><g><path d="M 9.25 -5.453125 L 7.484375 -10.265625 C 7.398438 -10.484375 7.3125 -10.738281 7.21875 -11.03125 C 7.125 -11.320312 7.03125 -11.640625 6.9375 -11.984375 C 6.851562 -11.640625 6.765625 -11.316406 6.671875 -11.015625 C 6.578125 -10.722656 6.488281 -10.46875 6.40625 -10.25 L 4.65625 -5.453125 Z M 14 0 L 11.921875 0 C 11.679688 0 11.488281 -0.0546875 11.34375 -0.171875 C 11.195312 -0.285156 11.085938 -0.429688 11.015625 -0.609375 L 9.9375 -3.5625 L 3.953125 -3.5625 L 2.875 -0.609375 C 2.820312 -0.453125 2.71875 -0.3125 2.5625 -0.1875 C 2.40625 -0.0625 2.210938 0 1.984375 0 L -0.109375 0 L 5.578125 -14.453125 L 8.3125 -14.453125 Z M 14 0 "/></g></g></g><g fill="#000000" fill-opacity="1"><g transform="translate(189.854583, 517.54423)"><g><path d="M 13.796875 -14.453125 L 13.796875 0 L 12.421875 0 C 12.203125 0 12.019531 -0.03125 11.875 -0.09375 C 11.738281 -0.164062 11.601562 -0.285156 11.46875 -0.453125 L 3.921875 -10.09375 C 3.960938 -9.65625 3.984375 -9.25 3.984375 -8.875 L 3.984375 0 L 1.609375 0 L 1.609375 -14.453125 L 3.015625 -14.453125 C 3.128906 -14.453125 3.226562 -14.445312 3.3125 -14.4375 C 3.394531 -14.4375 3.46875 -14.421875 3.53125 -14.390625 C 3.59375 -14.359375 3.65625 -14.3125 3.71875 -14.25 C 3.78125 -14.195312 3.847656 -14.125 3.921875 -14.03125 L 11.5 -4.34375 C 11.476562 -4.582031 11.460938 -4.8125 11.453125 -5.03125 C 11.441406 -5.257812 11.4375 -5.472656 11.4375 -5.671875 L 11.4375 -14.453125 Z M 13.796875 -14.453125 "/></g></g></g><g fill="#000000" fill-opacity="1"><g transform="translate(209.17851, 517.54423)"><g><path d="M 9.25 -5.453125 L 7.484375 -10.265625 C 7.398438 -10.484375 7.3125 -10.738281 7.21875 -11.03125 C 7.125 -11.320312 7.03125 -11.640625 6.9375 -11.984375 C 6.851562 -11.640625 6.765625 -11.316406 6.671875 -11.015625 C 6.578125 -10.722656 6.488281 -10.46875 6.40625 -10.25 L 4.65625 -5.453125 Z M 14 0 L 11.921875 0 C 11.679688 0 11.488281 -0.0546875 11.34375 -0.171875 C 11.195312 -0.285156 11.085938 -0.429688 11.015625 -0.609375 L 9.9375 -3.5625 L 3.953125 -3.5625 L 2.875 -0.609375 C 2.820312 -0.453125 2.71875 -0.3125 2.5625 -0.1875 C 2.40625 -0.0625 2.210938 0 1.984375 0 L -0.109375 0 L 5.578125 -14.453125 L 8.3125 -14.453125 Z M 14 0 "/></g></g></g><g fill="#000000" fill-opacity="1"><g transform="translate(226.983033, 517.54423)"><g><path d="M 13.53125 -7.25 L 13.53125 -1.40625 C 12.800781 -0.863281 12.019531 -0.46875 11.1875 -0.21875 C 10.351562 0.03125 9.460938 0.15625 8.515625 0.15625 C 7.335938 0.15625 6.269531 -0.0234375 5.3125 -0.390625 C 4.351562 -0.753906 3.535156 -1.265625 2.859375 -1.921875 C 2.179688 -2.578125 1.660156 -3.359375 1.296875 -4.265625 C 0.929688 -5.171875 0.75 -6.160156 0.75 -7.234375 C 0.75 -8.316406 0.925781 -9.3125 1.28125 -10.21875 C 1.632812 -11.125 2.132812 -11.90625 2.78125 -12.5625 C 3.4375 -13.21875 4.226562 -13.722656 5.15625 -14.078125 C 6.082031 -14.441406 7.117188 -14.625 8.265625 -14.625 C 8.859375 -14.625 9.410156 -14.578125 9.921875 -14.484375 C 10.429688 -14.390625 10.898438 -14.257812 11.328125 -14.09375 C 11.765625 -13.925781 12.160156 -13.726562 12.515625 -13.5 C 12.878906 -13.269531 13.210938 -13.015625 13.515625 -12.734375 L 12.75 -11.515625 C 12.625 -11.316406 12.460938 -11.195312 12.265625 -11.15625 C 12.078125 -11.113281 11.875 -11.160156 11.65625 -11.296875 C 11.425781 -11.421875 11.203125 -11.546875 10.984375 -11.671875 C 10.765625 -11.804688 10.519531 -11.921875 10.25 -12.015625 C 9.976562 -12.109375 9.675781 -12.179688 9.34375 -12.234375 C 9.007812 -12.296875 8.625 -12.328125 8.1875 -12.328125 C 7.46875 -12.328125 6.816406 -12.207031 6.234375 -11.96875 C 5.660156 -11.726562 5.171875 -11.382812 4.765625 -10.9375 C 4.359375 -10.488281 4.046875 -9.953125 3.828125 -9.328125 C 3.609375 -8.703125 3.5 -8.003906 3.5 -7.234375 C 3.5 -6.398438 3.613281 -5.660156 3.84375 -5.015625 C 4.082031 -4.367188 4.414062 -3.816406 4.84375 -3.359375 C 5.28125 -2.910156 5.800781 -2.566406 6.40625 -2.328125 C 7.007812 -2.097656 7.6875 -1.984375 8.4375 -1.984375 C 8.96875 -1.984375 9.441406 -2.035156 9.859375 -2.140625 C 10.285156 -2.253906 10.695312 -2.410156 11.09375 -2.609375 L 11.09375 -5.234375 L 9.28125 -5.234375 C 9.101562 -5.234375 8.96875 -5.28125 8.875 -5.375 C 8.78125 -5.46875 8.734375 -5.585938 8.734375 -5.734375 L 8.734375 -7.25 Z M 13.53125 -7.25 "/></g></g></g><g fill="#000000" fill-opacity="1"><g transform="translate(245.417312, 517.54423)"><g><path d="M 4.3125 -12.3125 L 4.3125 -8.3125 L 9.375 -8.3125 L 9.375 -6.234375 L 4.3125 -6.234375 L 4.3125 -2.15625 L 10.734375 -2.15625 L 10.734375 0 L 1.609375 0 L 1.609375 -14.453125 L 10.734375 -14.453125 L 10.734375 -12.3125 Z M 4.3125 -12.3125 "/></g></g></g><g fill="#000000" fill-opacity="1"><g transform="translate(154.407517, 264.500018)"><g><path d="M 5.984375 -7.578125 C 6.484375 -7.578125 6.921875 -7.640625 7.296875 -7.765625 C 7.679688 -7.890625 7.992188 -8.0625 8.234375 -8.28125 C 8.472656 -8.507812 8.648438 -8.773438 8.765625 -9.078125 C 8.890625 -9.390625 8.953125 -9.726562 8.953125 -10.09375 C 8.953125 -10.832031 8.710938 -11.394531 8.234375 -11.78125 C 7.753906 -12.175781 7.015625 -12.375 6.015625 -12.375 L 4.296875 -12.375 L 4.296875 -7.578125 Z M 12.90625 0 L 10.46875 0 C 10.007812 0 9.675781 -0.179688 9.46875 -0.546875 L 6.4375 -5.171875 C 6.320312 -5.347656 6.191406 -5.472656 6.046875 -5.546875 C 5.910156 -5.617188 5.710938 -5.65625 5.453125 -5.65625 L 4.296875 -5.65625 L 4.296875 0 L 1.609375 0 L 1.609375 -14.453125 L 6.015625 -14.453125 C 6.992188 -14.453125 7.832031 -14.347656 8.53125 -14.140625 C 9.238281 -13.941406 9.816406 -13.660156 10.265625 -13.296875 C 10.722656 -12.929688 11.054688 -12.492188 11.265625 -11.984375 C 11.484375 -11.472656 11.59375 -10.910156 11.59375 -10.296875 C 11.59375 -9.804688 11.519531 -9.34375 11.375 -8.90625 C 11.226562 -8.476562 11.019531 -8.085938 10.75 -7.734375 C 10.476562 -7.378906 10.144531 -7.066406 9.75 -6.796875 C 9.351562 -6.535156 8.90625 -6.332031 8.40625 -6.1875 C 8.570312 -6.082031 8.726562 -5.960938 8.875 -5.828125 C 9.019531 -5.691406 9.15625 -5.53125 9.28125 -5.34375 Z M 12.90625 0 "/></g></g></g><g fill="#000000" fill-opacity="1"><g transform="translate(171.182452, 264.500018)"><g><path d="M 4.3125 -12.3125 L 4.3125 -8.3125 L 9.375 -8.3125 L 9.375 -6.234375 L 4.3125 -6.234375 L 4.3125 -2.15625 L 10.734375 -2.15625 L 10.734375 0 L 1.609375 0 L 1.609375 -14.453125 L 10.734375 -14.453125 L 10.734375 -12.3125 Z M 4.3125 -12.3125 "/></g></g></g><g fill="#000000" fill-opacity="1"><g transform="translate(186.597921, 264.500018)"><g><path d="M 6.3125 -7.1875 C 6.800781 -7.1875 7.226562 -7.25 7.59375 -7.375 C 7.96875 -7.5 8.273438 -7.675781 8.515625 -7.90625 C 8.753906 -8.132812 8.929688 -8.410156 9.046875 -8.734375 C 9.171875 -9.066406 9.234375 -9.4375 9.234375 -9.84375 C 9.234375 -10.238281 9.171875 -10.59375 9.046875 -10.90625 C 8.929688 -11.21875 8.753906 -11.484375 8.515625 -11.703125 C 8.273438 -11.921875 7.972656 -12.085938 7.609375 -12.203125 C 7.242188 -12.316406 6.8125 -12.375 6.3125 -12.375 L 4.296875 -12.375 L 4.296875 -7.1875 Z M 6.3125 -14.453125 C 7.28125 -14.453125 8.113281 -14.335938 8.8125 -14.109375 C 9.519531 -13.890625 10.101562 -13.578125 10.5625 -13.171875 C 11.03125 -12.765625 11.375 -12.273438 11.59375 -11.703125 C 11.820312 -11.140625 11.9375 -10.519531 11.9375 -9.84375 C 11.9375 -9.144531 11.816406 -8.503906 11.578125 -7.921875 C 11.347656 -7.335938 11 -6.835938 10.53125 -6.421875 C 10.0625 -6.003906 9.472656 -5.675781 8.765625 -5.4375 C 8.066406 -5.207031 7.25 -5.09375 6.3125 -5.09375 L 4.296875 -5.09375 L 4.296875 0 L 1.609375 0 L 1.609375 -14.453125 Z M 6.3125 -14.453125 "/></g></g></g><g fill="#000000" fill-opacity="1"><g transform="translate(202.893043, 264.500018)"><g><path d="M 15.40625 -7.234375 C 15.40625 -6.171875 15.226562 -5.1875 14.875 -4.28125 C 14.519531 -3.382812 14.023438 -2.601562 13.390625 -1.9375 C 12.753906 -1.28125 11.984375 -0.765625 11.078125 -0.390625 C 10.179688 -0.0234375 9.179688 0.15625 8.078125 0.15625 C 6.984375 0.15625 5.984375 -0.0234375 5.078125 -0.390625 C 4.179688 -0.765625 3.410156 -1.28125 2.765625 -1.9375 C 2.128906 -2.601562 1.632812 -3.382812 1.28125 -4.28125 C 0.925781 -5.1875 0.75 -6.171875 0.75 -7.234375 C 0.75 -8.285156 0.925781 -9.265625 1.28125 -10.171875 C 1.632812 -11.078125 2.128906 -11.859375 2.765625 -12.515625 C 3.410156 -13.179688 4.179688 -13.695312 5.078125 -14.0625 C 5.984375 -14.4375 6.984375 -14.625 8.078125 -14.625 C 8.816406 -14.625 9.507812 -14.535156 10.15625 -14.359375 C 10.800781 -14.191406 11.390625 -13.953125 11.921875 -13.640625 C 12.460938 -13.335938 12.945312 -12.960938 13.375 -12.515625 C 13.8125 -12.066406 14.179688 -11.566406 14.484375 -11.015625 C 14.785156 -10.472656 15.015625 -9.882812 15.171875 -9.25 C 15.328125 -8.613281 15.40625 -7.941406 15.40625 -7.234375 Z M 12.65625 -7.234375 C 12.65625 -8.023438 12.546875 -8.734375 12.328125 -9.359375 C 12.117188 -9.992188 11.816406 -10.53125 11.421875 -10.96875 C 11.023438 -11.40625 10.546875 -11.738281 9.984375 -11.96875 C 9.421875 -12.207031 8.785156 -12.328125 8.078125 -12.328125 C 7.367188 -12.328125 6.734375 -12.207031 6.171875 -11.96875 C 5.609375 -11.738281 5.128906 -11.40625 4.734375 -10.96875 C 4.335938 -10.53125 4.03125 -9.992188 3.8125 -9.359375 C 3.601562 -8.734375 3.5 -8.023438 3.5 -7.234375 C 3.5 -6.441406 3.601562 -5.726562 3.8125 -5.09375 C 4.03125 -4.46875 4.335938 -3.9375 4.734375 -3.5 C 5.128906 -3.0625 5.609375 -2.722656 6.171875 -2.484375 C 6.734375 -2.253906 7.367188 -2.140625 8.078125 -2.140625 C 8.785156 -2.140625 9.421875 -2.253906 9.984375 -2.484375 C 10.546875 -2.722656 11.023438 -3.0625 11.421875 -3.5 C 11.816406 -3.9375 12.117188 -4.46875 12.328125 -5.09375 C 12.546875 -5.726562 12.65625 -6.441406 12.65625 -7.234375 Z M 12.65625 -7.234375 "/></g></g></g><g fill="#000000" fill-opacity="1"><g transform="translate(222.966677, 264.500018)"><g><path d="M 5.984375 -7.578125 C 6.484375 -7.578125 6.921875 -7.640625 7.296875 -7.765625 C 7.679688 -7.890625 7.992188 -8.0625 8.234375 -8.28125 C 8.472656 -8.507812 8.648438 -8.773438 8.765625 -9.078125 C 8.890625 -9.390625 8.953125 -9.726562 8.953125 -10.09375 C 8.953125 -10.832031 8.710938 -11.394531 8.234375 -11.78125 C 7.753906 -12.175781 7.015625 -12.375 6.015625 -12.375 L 4.296875 -12.375 L 4.296875 -7.578125 Z M 12.90625 0 L 10.46875 0 C 10.007812 0 9.675781 -0.179688 9.46875 -0.546875 L 6.4375 -5.171875 C 6.320312 -5.347656 6.191406 -5.472656 6.046875 -5.546875 C 5.910156 -5.617188 5.710938 -5.65625 5.453125 -5.65625 L 4.296875 -5.65625 L 4.296875 0 L 1.609375 0 L 1.609375 -14.453125 L 6.015625 -14.453125 C 6.992188 -14.453125 7.832031 -14.347656 8.53125 -14.140625 C 9.238281 -13.941406 9.816406 -13.660156 10.265625 -13.296875 C 10.722656 -12.929688 11.054688 -12.492188 11.265625 -11.984375 C 11.484375 -11.472656 11.59375 -10.910156 11.59375 -10.296875 C 11.59375 -9.804688 11.519531 -9.34375 11.375 -8.90625 C 11.226562 -8.476562 11.019531 -8.085938 10.75 -7.734375 C 10.476562 -7.378906 10.144531 -7.066406 9.75 -6.796875 C 9.351562 -6.535156 8.90625 -6.332031 8.40625 -6.1875 C 8.570312 -6.082031 8.726562 -5.960938 8.875 -5.828125 C 9.019531 -5.691406 9.15625 -5.53125 9.28125 -5.34375 Z M 12.90625 0 "/></g></g></g><g fill="#000000" fill-opacity="1"><g transform="translate(239.741609, 264.500018)"><g><path d="M 11.703125 -12.25 L 7.34375 -12.25 L 7.34375 0 L 4.65625 0 L 4.65625 -12.25 L 0.296875 -12.25 L 0.296875 -14.453125 L 11.703125 -14.453125 Z M 11.703125 -12.25 "/></g></g></g><g fill="#000000" fill-opacity="1"><g transform="translate(437.990725, 517.54423)"><g><path d="M 6.3125 -7.1875 C 6.800781 -7.1875 7.226562 -7.25 7.59375 -7.375 C 7.96875 -7.5 8.273438 -7.675781 8.515625 -7.90625 C 8.753906 -8.132812 8.929688 -8.410156 9.046875 -8.734375 C 9.171875 -9.066406 9.234375 -9.4375 9.234375 -9.84375 C 9.234375 -10.238281 9.171875 -10.59375 9.046875 -10.90625 C 8.929688 -11.21875 8.753906 -11.484375 8.515625 -11.703125 C 8.273438 -11.921875 7.972656 -12.085938 7.609375 -12.203125 C 7.242188 -12.316406 6.8125 -12.375 6.3125 -12.375 L 4.296875 -12.375 L 4.296875 -7.1875 Z M 6.3125 -14.453125 C 7.28125 -14.453125 8.113281 -14.335938 8.8125 -14.109375 C 9.519531 -13.890625 10.101562 -13.578125 10.5625 -13.171875 C 11.03125 -12.765625 11.375 -12.273438 11.59375 -11.703125 C 11.820312 -11.140625 11.9375 -10.519531 11.9375 -9.84375 C 11.9375 -9.144531 11.816406 -8.503906 11.578125 -7.921875 C 11.347656 -7.335938 11 -6.835938 10.53125 -6.421875 C 10.0625 -6.003906 9.472656 -5.675781 8.765625 -5.4375 C 8.066406 -5.207031 7.25 -5.09375 6.3125 -5.09375 L 4.296875 -5.09375 L 4.296875 0 L 1.609375 0 L 1.609375 -14.453125 Z M 6.3125 -14.453125 "/></g></g></g><g fill="#000000" fill-opacity="1"><g transform="translate(454.285844, 517.54423)"><g><path d="M 10.078125 -2.21875 L 10.078125 0 L 1.609375 0 L 1.609375 -14.453125 L 4.296875 -14.453125 L 4.296875 -2.21875 Z M 10.078125 -2.21875 "/></g></g></g><g fill="#000000" fill-opacity="1"><g transform="translate(468.59175, 517.54423)"><g><path d="M 9.25 -5.453125 L 7.484375 -10.265625 C 7.398438 -10.484375 7.3125 -10.738281 7.21875 -11.03125 C 7.125 -11.320312 7.03125 -11.640625 6.9375 -11.984375 C 6.851562 -11.640625 6.765625 -11.316406 6.671875 -11.015625 C 6.578125 -10.722656 6.488281 -10.46875 6.40625 -10.25 L 4.65625 -5.453125 Z M 14 0 L 11.921875 0 C 11.679688 0 11.488281 -0.0546875 11.34375 -0.171875 C 11.195312 -0.285156 11.085938 -0.429688 11.015625 -0.609375 L 9.9375 -3.5625 L 3.953125 -3.5625 L 2.875 -0.609375 C 2.820312 -0.453125 2.71875 -0.3125 2.5625 -0.1875 C 2.40625 -0.0625 2.210938 0 1.984375 0 L -0.109375 0 L 5.578125 -14.453125 L 8.3125 -14.453125 Z M 14 0 "/></g></g></g><g fill="#000000" fill-opacity="1"><g transform="translate(486.396279, 517.54423)"><g><path d="M 13.796875 -14.453125 L 13.796875 0 L 12.421875 0 C 12.203125 0 12.019531 -0.03125 11.875 -0.09375 C 11.738281 -0.164062 11.601562 -0.285156 11.46875 -0.453125 L 3.921875 -10.09375 C 3.960938 -9.65625 3.984375 -9.25 3.984375 -8.875 L 3.984375 0 L 1.609375 0 L 1.609375 -14.453125 L 3.015625 -14.453125 C 3.128906 -14.453125 3.226562 -14.445312 3.3125 -14.4375 C 3.394531 -14.4375 3.46875 -14.421875 3.53125 -14.390625 C 3.59375 -14.359375 3.65625 -14.3125 3.71875 -14.25 C 3.78125 -14.195312 3.847656 -14.125 3.921875 -14.03125 L 11.5 -4.34375 C 11.476562 -4.582031 11.460938 -4.8125 11.453125 -5.03125 C 11.441406 -5.257812 11.4375 -5.472656 11.4375 -5.671875 L 11.4375 -14.453125 Z M 13.796875 -14.453125 "/></g></g></g></svg>