<svg xmlns="http://www.w3.org/2000/svg" xmlns:xlink="http://www.w3.org/1999/xlink" width="150" zoomAndPan="magnify" viewBox="0 0 112.5 112.499997" height="150" preserveAspectRatio="xMidYMid meet" version="1.0"><defs><g/><clipPath id="a08a79f2e5"><path d="M 7.621094 18.550781 L 105.121094 18.550781 L 105.121094 94.300781 L 7.621094 94.300781 Z M 7.621094 18.550781 " clip-rule="nonzero"/></clipPath><clipPath id="8571d4451d"><path d="M 7.628906 18.550781 L 105.121094 18.550781 L 105.121094 94.300781 L 7.628906 94.300781 Z M 7.628906 18.550781 " clip-rule="nonzero"/></clipPath><clipPath id="530d491b4d"><path d="M 24.917969 18.550781 L 87.824219 18.550781 C 92.410156 18.550781 96.808594 20.378906 100.050781 23.628906 C 103.296875 26.878906 105.117188 31.285156 105.117188 35.882812 L 105.117188 76.972656 C 105.117188 81.566406 103.296875 85.976562 100.050781 89.226562 C 96.808594 92.476562 92.410156 94.300781 87.824219 94.300781 L 24.917969 94.300781 C 20.332031 94.300781 15.933594 92.476562 12.691406 89.226562 C 9.449219 85.976562 7.628906 81.566406 7.628906 76.972656 L 7.628906 35.882812 C 7.628906 31.285156 9.449219 26.878906 12.691406 23.628906 C 15.933594 20.378906 20.332031 18.550781 24.917969 18.550781 " clip-rule="nonzero"/></clipPath></defs><g clip-path="url(#a08a79f2e5)"><path fill="#8c52ff" d="M 24.917969 18.550781 L 87.824219 18.550781 C 92.410156 18.550781 96.808594 20.378906 100.050781 23.628906 C 103.296875 26.878906 105.117188 31.285156 105.117188 35.882812 L 105.117188 76.972656 C 105.117188 81.566406 103.296875 85.976562 100.050781 89.226562 C 96.808594 92.476562 92.410156 94.300781 87.824219 94.300781 L 24.917969 94.300781 C 20.332031 94.300781 15.933594 92.476562 12.691406 89.226562 C 9.449219 85.976562 7.628906 81.566406 7.628906 76.972656 L 7.628906 35.882812 C 7.628906 31.285156 9.449219 26.878906 12.691406 23.628906 C 15.933594 20.378906 20.332031 18.550781 24.917969 18.550781 " fill-opacity="1" fill-rule="nonzero"/></g><g clip-path="url(#8571d4451d)"><g clip-path="url(#530d491b4d)"><path stroke-linecap="butt" transform="matrix(0.751898, 0, 0, 0.753614, 7.627753, 18.552136)" fill="none" stroke-linejoin="miter" d="M 22.995434 -0.00179803 L 106.658731 -0.00179803 C 112.75788 -0.00179803 118.607661 2.424012 122.919667 6.736564 C 127.236868 11.049115 129.657825 16.89594 129.657825 22.996749 L 129.657825 77.520463 C 129.657825 83.616089 127.236868 89.468097 122.919667 93.780649 C 118.607661 98.0932 112.75788 100.513827 106.658731 100.513827 L 22.995434 100.513827 C 16.896284 100.513827 11.046503 98.0932 6.734497 93.780649 C 2.422492 89.468097 0.00153434 83.616089 0.00153434 77.520463 L 0.00153434 22.996749 C 0.00153434 16.89594 2.422492 11.049115 6.734497 6.736564 C 11.046503 2.424012 16.896284 -0.00179803 22.995434 -0.00179803 " stroke="#8c52ff" stroke-width="26" stroke-opacity="1" stroke-miterlimit="4"/></g></g><g fill="#ffffff" fill-opacity="1"><g transform="translate(23.819828, 80.578348)"><g><path d="M 9.164062 -12.210938 C 9.261719 -12.1875 9.546875 -12.113281 9.621094 -12.113281 C 9.789062 -12.113281 9.859375 -12.1875 9.929688 -12.304688 L 10.601562 -13.890625 C 10.628906 -13.960938 10.675781 -14.082031 10.675781 -14.175781 C 10.675781 -14.296875 10.652344 -14.417969 10.484375 -14.488281 C 9.117188 -15.113281 8.109375 -15.304688 6.382812 -15.304688 C 3.476562 -15.304688 1.128906 -14.007812 1.128906 -10.914062 C 1.128906 -5.851562 9.019531 -7.027344 9.019531 -4.175781 C 9.019531 -3.453125 8.828125 -2.589844 6.523438 -2.589844 C 5.421875 -2.589844 4.007812 -2.925781 2.757812 -3.621094 C 2.664062 -3.671875 2.589844 -3.695312 2.519531 -3.695312 C 2.351562 -3.695312 2.277344 -3.597656 2.207031 -3.476562 L 1.296875 -1.824219 C 1.246094 -1.75 1.222656 -1.679688 1.222656 -1.582031 C 1.222656 -1.464844 1.246094 -1.34375 1.414062 -1.222656 C 3.382812 0.144531 6.40625 0.191406 6.40625 0.191406 C 11.683594 0.191406 12.089844 -3.335938 12.089844 -4.199219 C 12.089844 -9.621094 4.199219 -8.445312 4.199219 -11.011719 C 4.199219 -12.234375 5.15625 -12.523438 6.667969 -12.523438 C 7.554688 -12.523438 8.421875 -12.378906 9.164062 -12.210938 Z M 9.164062 -12.210938 "/></g></g></g><g fill="#ffffff" fill-opacity="1"><g transform="translate(40.872394, 80.578348)"><g><path d="M 5.46875 -15.113281 C 5.324219 -15.113281 5.132812 -15.015625 5.0625 -14.824219 L 0.648438 -0.433594 C 0.648438 -0.144531 0.886719 0 1.078125 0 L 3.261719 0 C 3.453125 0 3.644531 -0.144531 3.742188 -0.433594 L 4.292969 -2.304688 L 9.835938 -2.304688 L 10.410156 -0.433594 C 10.507812 -0.144531 10.699219 0 10.890625 0 L 13.074219 0 C 13.265625 0 13.507812 -0.144531 13.507812 -0.433594 L 9.09375 -14.824219 C 9.019531 -15.015625 8.828125 -15.113281 8.683594 -15.113281 Z M 7.078125 -11.371094 L 8.972656 -5.132812 L 5.15625 -5.132812 Z M 7.078125 -11.371094 "/></g></g></g><g fill="#ffffff" fill-opacity="1"><g transform="translate(58.980042, 80.578348)"><g><path d="M 11.945312 -8.445312 C 11.945312 -8.730469 11.707031 -8.875 11.515625 -8.875 L 8.058594 -8.875 C 7.773438 -8.875 7.628906 -8.636719 7.628906 -8.445312 L 7.628906 -6.8125 C 7.628906 -6.621094 7.773438 -6.382812 8.058594 -6.382812 L 9.332031 -6.382812 L 9.332031 -2.832031 C 8.660156 -2.710938 8.132812 -2.640625 7.605469 -2.640625 C 6.117188 -2.640625 4.316406 -3.285156 4.316406 -5.566406 L 4.316406 -9.546875 C 4.316406 -11.828125 6.117188 -12.472656 7.605469 -12.472656 C 8.421875 -12.472656 9.429688 -12.332031 10.410156 -12.066406 C 10.53125 -12.066406 10.675781 -12.113281 10.746094 -12.304688 L 11.082031 -14.394531 C 11.082031 -14.464844 11.035156 -14.65625 10.84375 -14.730469 C 9.738281 -15.113281 8.253906 -15.304688 7.101562 -15.304688 C 1.96875 -15.304688 1.246094 -11.492188 1.246094 -9.835938 L 1.246094 -5.277344 C 1.246094 -3.621094 1.96875 0.191406 7.101562 0.191406 C 8.253906 0.191406 10.578125 -0.0703125 11.851562 -0.695312 C 11.898438 -0.71875 11.945312 -0.769531 11.945312 -0.839844 Z M 11.945312 -8.445312 "/></g></g></g><g fill="#ffffff" fill-opacity="1"><g transform="translate(76.368324, 80.578348)"><g><path d="M 4.582031 -2.832031 L 4.582031 -6.070312 L 9.285156 -6.070312 C 9.570312 -6.070312 9.714844 -6.308594 9.714844 -6.5 L 9.714844 -8.46875 C 9.714844 -8.660156 9.570312 -8.898438 9.285156 -8.898438 L 4.582031 -8.898438 L 4.582031 -12.28125 L 10.386719 -12.28125 C 10.675781 -12.28125 10.820312 -12.523438 10.820312 -12.714844 L 10.820312 -14.679688 C 10.820312 -14.875 10.675781 -15.113281 10.386719 -15.113281 L 1.917969 -15.113281 C 1.726562 -15.113281 1.488281 -14.96875 1.488281 -14.679688 L 1.488281 -0.433594 C 1.488281 -0.144531 1.726562 0 1.917969 0 L 10.386719 0 C 10.675781 0 10.820312 -0.238281 10.820312 -0.433594 L 10.820312 -2.398438 C 10.820312 -2.589844 10.675781 -2.832031 10.386719 -2.832031 Z M 4.582031 -2.832031 "/></g></g></g><g fill="#ffffff" fill-opacity="1"><g transform="translate(21.756198, 62.03992)"><g><path d="M 44.046875 0 L 32.21875 0 C 31.675781 -0.75 31.296875 -1.707031 31.078125 -2.875 C 30.890625 -3.769531 30.597656 -4.648438 30.203125 -5.515625 C 29.816406 -6.378906 29.148438 -7.097656 28.203125 -7.671875 C 27.253906 -8.253906 25.84375 -8.566406 23.96875 -8.609375 L 15.84375 -8.609375 L 15.84375 0 L 3.328125 0 L 3.328125 -29.828125 L 23.6875 -29.828125 C 28.550781 -29.828125 32.472656 -29.460938 35.453125 -28.734375 C 38.441406 -28.015625 40.617188 -26.875 41.984375 -25.3125 C 43.359375 -23.75 44.046875 -21.710938 44.046875 -19.203125 C 44.046875 -17.117188 43.570312 -15.359375 42.625 -13.921875 C 41.675781 -12.492188 40.175781 -11.367188 38.125 -10.546875 C 40.113281 -9.722656 41.398438 -8.738281 41.984375 -7.59375 C 42.578125 -6.457031 42.941406 -5.203125 43.078125 -3.828125 C 43.210938 -2.609375 43.535156 -1.332031 44.046875 0 Z M 15.84375 -15.96875 L 23 -15.984375 C 24.988281 -15.984375 26.554688 -16.070312 27.703125 -16.25 C 28.859375 -16.4375 29.707031 -16.6875 30.25 -17 C 30.800781 -17.3125 31.148438 -17.65625 31.296875 -18.03125 C 31.453125 -18.414062 31.53125 -18.804688 31.53125 -19.203125 C 31.53125 -19.609375 31.453125 -20.003906 31.296875 -20.390625 C 31.148438 -20.785156 30.800781 -21.132812 30.25 -21.4375 C 29.707031 -21.75 28.859375 -21.992188 27.703125 -22.171875 C 26.554688 -22.359375 24.988281 -22.453125 23 -22.453125 L 15.84375 -22.453125 Z M 15.84375 -15.96875 "/></g></g></g><path stroke-linecap="butt" transform="matrix(2.963278, 0, 0, 3.186722, 67.672185, 48.785958)" fill="none" stroke-linejoin="miter" d="M -0.000104679 -0.000251707 L 7.341058 -0.000251707 " stroke="#ffffff" stroke-width="1" stroke-opacity="1" stroke-miterlimit="4"/><path stroke-linecap="butt" transform="matrix(2.960854, 0, 0, 3.186722, 65.253623, 54.953525)" fill="none" stroke-linejoin="miter" d="M 0.0000955555 -0.000125502 L 6.589991 -0.000125502 " stroke="#ffffff" stroke-width="1" stroke-opacity="1" stroke-miterlimit="4"/><path stroke-linecap="butt" transform="matrix(2.960854, 0, 0, 3.186722, 67.672185, 60.641698)" fill="none" stroke-linejoin="miter" d="M -0.000104765 -0.000336766 L 6.589791 -0.000336766 " stroke="#ffffff" stroke-width="1" stroke-opacity="1" stroke-miterlimit="4"/></svg>